G04*
G04 #@! TF.GenerationSoftware,Altium Limited,Altium Designer,21.9.2 (33)*
G04*
G04 Layer_Physical_Order=2*
G04 Layer_Color=16711680*
%FSLAX25Y25*%
%MOIN*%
G70*
G04*
G04 #@! TF.SameCoordinates,F625CF21-14F9-4619-B10E-FD0BC141F2AC*
G04*
G04*
G04 #@! TF.FilePolarity,Positive*
G04*
G01*
G75*
%ADD12C,0.00600*%
%ADD16C,0.00800*%
%ADD66C,0.01200*%
%ADD67C,0.00700*%
%ADD69C,0.02559*%
%ADD70O,0.03937X0.06299*%
%ADD71O,0.03937X0.08268*%
%ADD72C,0.06200*%
%ADD73R,0.06200X0.06200*%
%ADD74C,0.01600*%
%ADD75C,0.03937*%
G04:AMPARAMS|DCode=76|XSize=15.75mil|YSize=118.11mil|CornerRadius=3.94mil|HoleSize=0mil|Usage=FLASHONLY|Rotation=0.000|XOffset=0mil|YOffset=0mil|HoleType=Round|Shape=RoundedRectangle|*
%AMROUNDEDRECTD76*
21,1,0.01575,0.11024,0,0,0.0*
21,1,0.00787,0.11811,0,0,0.0*
1,1,0.00787,0.00394,-0.05512*
1,1,0.00787,-0.00394,-0.05512*
1,1,0.00787,-0.00394,0.05512*
1,1,0.00787,0.00394,0.05512*
%
%ADD76ROUNDEDRECTD76*%
G36*
X129441Y-13000D02*
X107000D01*
Y-55500D01*
X129441D01*
Y-121448D01*
X-94484D01*
Y18450D01*
X129441D01*
Y-13000D01*
D02*
G37*
%LPC*%
G36*
X100000Y15530D02*
X99086Y15410D01*
X98235Y15057D01*
X97504Y14496D01*
X96943Y13765D01*
X96590Y12914D01*
X96470Y12000D01*
X96590Y11086D01*
X96943Y10235D01*
X97504Y9504D01*
X98235Y8943D01*
X99086Y8590D01*
X100000Y8470D01*
X100914Y8590D01*
X101765Y8943D01*
X102496Y9504D01*
X103057Y10235D01*
X103410Y11086D01*
X103530Y12000D01*
X103410Y12914D01*
X103057Y13765D01*
X102496Y14496D01*
X101765Y15057D01*
X100914Y15410D01*
X100000Y15530D01*
D02*
G37*
G36*
X-67500Y15030D02*
X-68414Y14910D01*
X-69265Y14557D01*
X-69996Y13996D01*
X-70557Y13265D01*
X-70910Y12414D01*
X-71030Y11500D01*
X-70910Y10586D01*
X-70557Y9735D01*
X-69996Y9004D01*
X-69265Y8443D01*
X-68414Y8090D01*
X-67500Y7970D01*
X-66586Y8090D01*
X-65735Y8443D01*
X-65004Y9004D01*
X-64443Y9735D01*
X-64090Y10586D01*
X-63970Y11500D01*
X-64090Y12414D01*
X-64443Y13265D01*
X-65004Y13996D01*
X-65735Y14557D01*
X-66586Y14910D01*
X-67500Y15030D01*
D02*
G37*
G36*
X110000Y15530D02*
X109086Y15410D01*
X108235Y15057D01*
X107504Y14496D01*
X106943Y13765D01*
X106590Y12914D01*
X106470Y12000D01*
X106590Y11086D01*
X106943Y10235D01*
X107504Y9504D01*
X108235Y8943D01*
X109086Y8590D01*
X110000Y8470D01*
X110914Y8590D01*
X111765Y8943D01*
X111925Y9065D01*
X113286Y7704D01*
Y3788D01*
X112786Y3618D01*
X112496Y3996D01*
X111765Y4557D01*
X110914Y4910D01*
X110000Y5030D01*
X109086Y4910D01*
X108235Y4557D01*
X107504Y3996D01*
X106943Y3265D01*
X106590Y2414D01*
X106470Y1500D01*
X106590Y586D01*
X106943Y-265D01*
X107504Y-996D01*
X108235Y-1557D01*
X109086Y-1910D01*
X109286Y-1936D01*
Y-6204D01*
X107704Y-7786D01*
X93750D01*
X93477Y-7841D01*
X93245Y-7995D01*
X86151Y-15089D01*
X85939Y-15066D01*
X85579Y-14954D01*
X85365Y-14635D01*
X84968Y-14370D01*
X84500Y-14277D01*
X84032Y-14370D01*
X83635Y-14635D01*
X83370Y-15032D01*
X83276Y-15500D01*
X83312Y-15679D01*
X81480Y-17511D01*
X80987Y-17449D01*
X80714Y-17219D01*
Y-7000D01*
X80659Y-6727D01*
X80505Y-6495D01*
X77505Y-3495D01*
X77273Y-3341D01*
X77000Y-3286D01*
X54000D01*
X53727Y-3341D01*
X53495Y-3495D01*
X49179Y-7812D01*
X49000Y-7777D01*
X48532Y-7870D01*
X48135Y-8135D01*
X47870Y-8532D01*
X47776Y-9000D01*
X47870Y-9468D01*
X48135Y-9865D01*
X48532Y-10130D01*
X49000Y-10223D01*
X49468Y-10130D01*
X49865Y-9865D01*
X50130Y-9468D01*
X50223Y-9000D01*
X50188Y-8821D01*
X54296Y-4714D01*
X76704D01*
X79286Y-7296D01*
Y-17534D01*
X79135Y-17635D01*
X78870Y-18032D01*
X78777Y-18500D01*
X78870Y-18968D01*
X79135Y-19365D01*
X79532Y-19630D01*
X80000Y-19724D01*
X80468Y-19630D01*
X80770Y-19428D01*
X81112Y-19539D01*
X81270Y-19650D01*
Y-26434D01*
X80809Y-26625D01*
X69816Y-15632D01*
Y-9898D01*
X69865Y-9865D01*
X70130Y-9468D01*
X70223Y-9000D01*
X70130Y-8532D01*
X69865Y-8135D01*
X69468Y-7870D01*
X69000Y-7777D01*
X68532Y-7870D01*
X68135Y-8135D01*
X67870Y-8532D01*
X67777Y-9000D01*
X67870Y-9468D01*
X68135Y-9865D01*
X68184Y-9898D01*
Y-15970D01*
X68184Y-15970D01*
X68246Y-16282D01*
X68423Y-16547D01*
X71001Y-19124D01*
X70682Y-19512D01*
X70642Y-19486D01*
X70468Y-19370D01*
X70000Y-19276D01*
X69821Y-19312D01*
X63005Y-12495D01*
X62773Y-12341D01*
X62500Y-12286D01*
X-5534D01*
X-5635Y-12135D01*
X-6032Y-11870D01*
X-6500Y-11777D01*
X-6968Y-11870D01*
X-7365Y-12135D01*
X-7630Y-12532D01*
X-7723Y-13000D01*
X-7630Y-13468D01*
X-7365Y-13865D01*
X-6968Y-14130D01*
X-6500Y-14223D01*
X-6032Y-14130D01*
X-5635Y-13865D01*
X-5534Y-13714D01*
X62204D01*
X68812Y-20321D01*
X68777Y-20500D01*
X68870Y-20968D01*
X69135Y-21365D01*
X69532Y-21630D01*
X70000Y-21723D01*
X70468Y-21630D01*
X70865Y-21365D01*
X71130Y-20968D01*
X71223Y-20500D01*
X71130Y-20032D01*
X71015Y-19858D01*
X70988Y-19818D01*
X71376Y-19499D01*
X82901Y-31024D01*
X82710Y-31486D01*
X66496D01*
X64688Y-29679D01*
X64723Y-29500D01*
X64630Y-29032D01*
X64365Y-28635D01*
X63968Y-28370D01*
X63500Y-28277D01*
X63032Y-28370D01*
X62635Y-28635D01*
X62370Y-29032D01*
X62277Y-29500D01*
X62370Y-29968D01*
X62635Y-30365D01*
X63032Y-30630D01*
X63500Y-30724D01*
X63679Y-30688D01*
X65277Y-32286D01*
X65070Y-32786D01*
X57417D01*
X45126Y-20495D01*
X44894Y-20341D01*
X44621Y-20286D01*
X-18999D01*
X-19100Y-20135D01*
X-19497Y-19870D01*
X-19965Y-19776D01*
X-20434Y-19870D01*
X-20831Y-20135D01*
X-21096Y-20532D01*
X-21189Y-21000D01*
X-21096Y-21468D01*
X-20831Y-21865D01*
X-20434Y-22130D01*
X-19965Y-22223D01*
X-19497Y-22130D01*
X-19100Y-21865D01*
X-18999Y-21714D01*
X44326D01*
X52514Y-29902D01*
X52377Y-30473D01*
X52135Y-30635D01*
X52034Y-30786D01*
X-17135D01*
X-18743Y-29179D01*
X-18708Y-29000D01*
X-18801Y-28532D01*
X-19066Y-28135D01*
X-19463Y-27870D01*
X-19931Y-27777D01*
X-20399Y-27870D01*
X-20796Y-28135D01*
X-21061Y-28532D01*
X-21155Y-29000D01*
X-21061Y-29468D01*
X-20796Y-29865D01*
X-20399Y-30130D01*
X-19931Y-30224D01*
X-19752Y-30188D01*
X-17936Y-32005D01*
X-17704Y-32159D01*
X-17431Y-32214D01*
X52034D01*
X52135Y-32365D01*
X52532Y-32630D01*
X53000Y-32724D01*
X53468Y-32630D01*
X53865Y-32365D01*
X54027Y-32122D01*
X54598Y-31986D01*
X56617Y-34005D01*
X56848Y-34159D01*
X57121Y-34214D01*
X96179D01*
X96774Y-34808D01*
Y-44542D01*
X96635Y-44635D01*
X96370Y-45032D01*
X96276Y-45500D01*
X96370Y-45968D01*
X96635Y-46365D01*
X97032Y-46630D01*
X97500Y-46723D01*
X97968Y-46630D01*
X98286Y-46418D01*
X98587Y-46507D01*
X98786Y-46635D01*
Y-48192D01*
X98587Y-48320D01*
X98286Y-48409D01*
X97968Y-48196D01*
X97500Y-48103D01*
X97032Y-48196D01*
X96635Y-48462D01*
X96370Y-48859D01*
X96276Y-49327D01*
X96370Y-49795D01*
X96635Y-50192D01*
X97032Y-50457D01*
X97500Y-50550D01*
X97968Y-50457D01*
X98044Y-50406D01*
X98362Y-50468D01*
X98587Y-50627D01*
X98586Y-50895D01*
X95670Y-53812D01*
X95491Y-53777D01*
X95023Y-53870D01*
X94626Y-54135D01*
X94361Y-54532D01*
X94267Y-55000D01*
X94361Y-55468D01*
X94626Y-55865D01*
X94841Y-56009D01*
X94877Y-56549D01*
X94866Y-56581D01*
X94696Y-56695D01*
X94430Y-57092D01*
X94337Y-57561D01*
X94430Y-58029D01*
X94696Y-58426D01*
X95092Y-58691D01*
X95561Y-58784D01*
X96029Y-58691D01*
X96426Y-58426D01*
X96691Y-58029D01*
X96784Y-57561D01*
X96725Y-57266D01*
X100824Y-53167D01*
X101286Y-53358D01*
Y-56034D01*
X101135Y-56135D01*
X100870Y-56532D01*
X100777Y-57000D01*
X100870Y-57468D01*
X101135Y-57865D01*
X101532Y-58130D01*
X102000Y-58223D01*
X102286Y-58167D01*
X102786Y-58473D01*
Y-103204D01*
X97204Y-108786D01*
X87466D01*
X87365Y-108635D01*
X86968Y-108370D01*
X86500Y-108276D01*
X86032Y-108370D01*
X85635Y-108635D01*
X85370Y-109032D01*
X85277Y-109500D01*
X85370Y-109968D01*
X85635Y-110365D01*
X86032Y-110630D01*
X86500Y-110723D01*
X86968Y-110630D01*
X87365Y-110365D01*
X87466Y-110214D01*
X97500D01*
X97773Y-110159D01*
X98005Y-110005D01*
X104005Y-104005D01*
X104159Y-103773D01*
X104214Y-103500D01*
Y-55296D01*
X105505Y-54005D01*
X105659Y-53773D01*
X105714Y-53500D01*
Y-37500D01*
X105659Y-37227D01*
X105505Y-36995D01*
X99043Y-30534D01*
X99213Y-29997D01*
X99307Y-29980D01*
X99532Y-30130D01*
X100000Y-30224D01*
X100468Y-30130D01*
X100865Y-29865D01*
X101130Y-29468D01*
X101171Y-29266D01*
X101713Y-29101D01*
X102286Y-29674D01*
Y-30534D01*
X102135Y-30635D01*
X101870Y-31032D01*
X101777Y-31500D01*
X101870Y-31968D01*
X102135Y-32365D01*
X102532Y-32630D01*
X103000Y-32724D01*
X103468Y-32630D01*
X103865Y-32365D01*
X104130Y-31968D01*
X104224Y-31500D01*
X104130Y-31032D01*
X103865Y-30635D01*
X103714Y-30534D01*
Y-29379D01*
X103659Y-29105D01*
X103505Y-28874D01*
X101126Y-26495D01*
X100894Y-26341D01*
X100621Y-26286D01*
X86118D01*
X85036Y-25204D01*
Y-19637D01*
X94459Y-10214D01*
X108500D01*
X108773Y-10159D01*
X109005Y-10005D01*
X114505Y-4505D01*
X114659Y-4273D01*
X114714Y-4000D01*
Y8000D01*
X114659Y8273D01*
X114505Y8505D01*
X112935Y10075D01*
X113057Y10235D01*
X113410Y11086D01*
X113530Y12000D01*
X113410Y12914D01*
X113057Y13765D01*
X112496Y14496D01*
X111765Y15057D01*
X110914Y15410D01*
X110000Y15530D01*
D02*
G37*
G36*
X100000Y5030D02*
X99086Y4910D01*
X98235Y4557D01*
X97504Y3996D01*
X96943Y3265D01*
X96590Y2414D01*
X96470Y1500D01*
X96590Y586D01*
X96943Y-265D01*
X97504Y-996D01*
X98235Y-1557D01*
X99086Y-1910D01*
X100000Y-2030D01*
X100914Y-1910D01*
X101765Y-1557D01*
X102496Y-996D01*
X103057Y-265D01*
X103410Y586D01*
X103530Y1500D01*
X103410Y2414D01*
X103057Y3265D01*
X102496Y3996D01*
X101765Y4557D01*
X100914Y4910D01*
X100000Y5030D01*
D02*
G37*
G36*
X-57500D02*
X-58414Y4910D01*
X-59265Y4557D01*
X-59996Y3996D01*
X-60557Y3265D01*
X-60910Y2414D01*
X-61030Y1500D01*
X-60910Y586D01*
X-60557Y-265D01*
X-59996Y-996D01*
X-59265Y-1557D01*
X-58414Y-1910D01*
X-57500Y-2030D01*
X-56586Y-1910D01*
X-55735Y-1557D01*
X-55004Y-996D01*
X-54443Y-265D01*
X-54090Y586D01*
X-53970Y1500D01*
X-54090Y2414D01*
X-54443Y3265D01*
X-55004Y3996D01*
X-55735Y4557D01*
X-56586Y4910D01*
X-57500Y5030D01*
D02*
G37*
G36*
X-67500D02*
X-68414Y4910D01*
X-69265Y4557D01*
X-69996Y3996D01*
X-70557Y3265D01*
X-70910Y2414D01*
X-71030Y1500D01*
X-70910Y586D01*
X-70557Y-265D01*
X-69996Y-996D01*
X-69265Y-1557D01*
X-68414Y-1910D01*
X-67500Y-2030D01*
X-66586Y-1910D01*
X-65735Y-1557D01*
X-65004Y-996D01*
X-64443Y-265D01*
X-64090Y586D01*
X-63970Y1500D01*
X-64090Y2414D01*
X-64443Y3265D01*
X-65004Y3996D01*
X-65735Y4557D01*
X-66586Y4910D01*
X-67500Y5030D01*
D02*
G37*
G36*
X-57500Y15030D02*
X-58414Y14910D01*
X-59265Y14557D01*
X-59996Y13996D01*
X-60557Y13265D01*
X-60910Y12414D01*
X-61030Y11500D01*
X-60910Y10586D01*
X-60557Y9735D01*
X-59996Y9004D01*
X-59265Y8443D01*
X-58414Y8090D01*
X-57500Y7970D01*
X-56586Y8090D01*
X-55735Y8443D01*
X-55004Y9004D01*
X-54443Y9735D01*
X-54090Y10586D01*
X-54064Y10786D01*
X-35296D01*
X-5005Y-19505D01*
X-4773Y-19659D01*
X-4500Y-19714D01*
X61534D01*
X61635Y-19865D01*
X62032Y-20130D01*
X62500Y-20223D01*
X62968Y-20130D01*
X63365Y-19865D01*
X63630Y-19468D01*
X63723Y-19000D01*
X63630Y-18532D01*
X63365Y-18135D01*
X62968Y-17870D01*
X62500Y-17776D01*
X62032Y-17870D01*
X61635Y-18135D01*
X61534Y-18286D01*
X-4204D01*
X-34495Y12005D01*
X-34727Y12159D01*
X-35000Y12214D01*
X-54064D01*
X-54090Y12414D01*
X-54443Y13265D01*
X-55004Y13996D01*
X-55735Y14557D01*
X-56586Y14910D01*
X-57500Y15030D01*
D02*
G37*
G36*
X-71839Y-24845D02*
X-72763Y-25029D01*
X-73546Y-25552D01*
X-74070Y-26336D01*
X-74253Y-27260D01*
X-74070Y-28184D01*
X-73546Y-28967D01*
X-72763Y-29491D01*
X-71839Y-29675D01*
X-70914Y-29491D01*
X-70131Y-28967D01*
X-69608Y-28184D01*
X-69424Y-27260D01*
X-69608Y-26336D01*
X-70131Y-25552D01*
X-70914Y-25029D01*
X-71839Y-24845D01*
D02*
G37*
G36*
X59000Y-36277D02*
X58532Y-36370D01*
X58135Y-36635D01*
X58102Y-36684D01*
X56000D01*
X56000Y-36684D01*
X55688Y-36746D01*
X55423Y-36923D01*
X55423Y-36923D01*
X53423Y-38923D01*
X53246Y-39188D01*
X53184Y-39500D01*
X53184Y-39500D01*
Y-49744D01*
X53183Y-49754D01*
X52684Y-49803D01*
X52668Y-49719D01*
X52630Y-49532D01*
X52365Y-49135D01*
X51968Y-48870D01*
X51500Y-48777D01*
X51032Y-48870D01*
X50635Y-49135D01*
X50568Y-49235D01*
X28500D01*
X28500Y-49235D01*
X28207Y-49294D01*
X27959Y-49459D01*
X23692Y-53727D01*
X23526Y-53975D01*
X23468Y-54268D01*
Y-79282D01*
X23266Y-79416D01*
X23091Y-79678D01*
X23029Y-79988D01*
Y-91012D01*
X23091Y-91321D01*
X23266Y-91584D01*
X23529Y-91760D01*
X23839Y-91821D01*
X24626D01*
X24936Y-91760D01*
X25198Y-91584D01*
X25345Y-91364D01*
X25610Y-91338D01*
X25875Y-91364D01*
X26022Y-91584D01*
X26285Y-91760D01*
X26594Y-91821D01*
X27382D01*
X27692Y-91760D01*
X27954Y-91584D01*
X28101Y-91364D01*
X28366Y-91338D01*
X28631Y-91364D01*
X28778Y-91584D01*
X29041Y-91760D01*
X29350Y-91821D01*
X30138D01*
X30448Y-91760D01*
X30710Y-91584D01*
X30857Y-91364D01*
X31122Y-91338D01*
X31387Y-91364D01*
X31534Y-91584D01*
X31797Y-91760D01*
X32106Y-91821D01*
X32894D01*
X33203Y-91760D01*
X33466Y-91584D01*
X33641Y-91321D01*
X33703Y-91012D01*
Y-79988D01*
X33641Y-79678D01*
X33466Y-79416D01*
X33203Y-79241D01*
X32894Y-79179D01*
X32106D01*
X31797Y-79241D01*
X31534Y-79416D01*
X31387Y-79636D01*
X31122Y-79662D01*
X30857Y-79636D01*
X30710Y-79416D01*
X30458Y-79247D01*
Y-57051D01*
X31796Y-55714D01*
X50534D01*
X50635Y-55865D01*
X51032Y-56130D01*
X51500Y-56223D01*
X51968Y-56130D01*
X52365Y-55865D01*
X52630Y-55468D01*
X52668Y-55281D01*
X52684Y-55197D01*
X53183Y-55246D01*
X53184Y-55256D01*
Y-87444D01*
X32943Y-107684D01*
X30716D01*
X30716Y-107684D01*
X30404Y-107746D01*
X30277Y-107832D01*
X30000Y-107776D01*
X29532Y-107870D01*
X29135Y-108135D01*
X28870Y-108532D01*
X28776Y-109000D01*
X28870Y-109468D01*
X29135Y-109865D01*
X29532Y-110130D01*
X30000Y-110223D01*
X30468Y-110130D01*
X30865Y-109865D01*
X31130Y-109468D01*
X31161Y-109316D01*
X33281D01*
X33281Y-109316D01*
X33593Y-109254D01*
X33858Y-109077D01*
X54577Y-88358D01*
X54577Y-88358D01*
X54754Y-88094D01*
X54816Y-87781D01*
X54816Y-87781D01*
Y-75897D01*
X55316Y-75690D01*
X58786Y-79160D01*
Y-110034D01*
X58635Y-110135D01*
X58370Y-110532D01*
X58276Y-111000D01*
X58370Y-111468D01*
X58635Y-111865D01*
X59032Y-112130D01*
X59500Y-112223D01*
X59968Y-112130D01*
X60365Y-111865D01*
X60630Y-111468D01*
X60724Y-111000D01*
X60630Y-110532D01*
X60365Y-110135D01*
X60214Y-110034D01*
Y-78865D01*
X60159Y-78592D01*
X60005Y-78360D01*
X56214Y-74569D01*
Y-51135D01*
X56413Y-51007D01*
X56714Y-50918D01*
X57032Y-51130D01*
X57500Y-51223D01*
X57968Y-51130D01*
X58365Y-50865D01*
X58432Y-50765D01*
X87683D01*
X89235Y-52317D01*
Y-54568D01*
X89135Y-54635D01*
X88870Y-55032D01*
X88776Y-55500D01*
X88833Y-55785D01*
X88526Y-56285D01*
X63367D01*
X60200Y-53118D01*
X60224Y-53000D01*
X60130Y-52532D01*
X59865Y-52135D01*
X59468Y-51870D01*
X59000Y-51776D01*
X58532Y-51870D01*
X58135Y-52135D01*
X57870Y-52532D01*
X57776Y-53000D01*
X57870Y-53468D01*
X58135Y-53865D01*
X58532Y-54130D01*
X59000Y-54224D01*
X59118Y-54200D01*
X62509Y-57591D01*
X62509Y-57591D01*
X62757Y-57757D01*
X63050Y-57815D01*
X91234D01*
X91526Y-57757D01*
X91673Y-57658D01*
X92000Y-57723D01*
X92468Y-57630D01*
X92865Y-57365D01*
X93130Y-56968D01*
X93224Y-56500D01*
X93130Y-56032D01*
X92865Y-55635D01*
X92468Y-55370D01*
X92000Y-55277D01*
X91532Y-55370D01*
X91131Y-55036D01*
X91130Y-55032D01*
X90865Y-54635D01*
X90765Y-54568D01*
Y-52000D01*
X90765Y-52000D01*
X90706Y-51707D01*
X90541Y-51459D01*
X88541Y-49459D01*
X88293Y-49294D01*
X88000Y-49235D01*
X58432D01*
X58365Y-49135D01*
X57968Y-48870D01*
X57500Y-48777D01*
X57032Y-48870D01*
X56714Y-49082D01*
X56413Y-48993D01*
X56214Y-48865D01*
Y-43296D01*
X57005Y-42505D01*
X57159Y-42273D01*
X57214Y-42000D01*
Y-40919D01*
X57365Y-40818D01*
X57630Y-40421D01*
X57723Y-39953D01*
X57630Y-39485D01*
X57365Y-39088D01*
X56968Y-38822D01*
X56934Y-38816D01*
X56984Y-38316D01*
X58102D01*
X58135Y-38365D01*
X58532Y-38630D01*
X59000Y-38723D01*
X59468Y-38630D01*
X59865Y-38365D01*
X60130Y-37968D01*
X60224Y-37500D01*
X60130Y-37032D01*
X59865Y-36635D01*
X59468Y-36370D01*
X59000Y-36277D01*
D02*
G37*
G36*
X52000Y-34277D02*
X51532Y-34370D01*
X51135Y-34635D01*
X51034Y-34786D01*
X-17431D01*
X-17704Y-34841D01*
X-17936Y-34995D01*
X-19760Y-36820D01*
X-19939Y-36784D01*
X-20407Y-36878D01*
X-20804Y-37143D01*
X-21069Y-37540D01*
X-21162Y-38008D01*
X-21069Y-38476D01*
X-20804Y-38873D01*
X-20407Y-39138D01*
X-19939Y-39231D01*
X-19471Y-39138D01*
X-19074Y-38873D01*
X-18809Y-38476D01*
X-18715Y-38008D01*
X-18751Y-37829D01*
X-17135Y-36214D01*
X51034D01*
X51135Y-36365D01*
X51532Y-36630D01*
X52000Y-36724D01*
X52468Y-36630D01*
X52865Y-36365D01*
X53130Y-35968D01*
X53224Y-35500D01*
X53130Y-35032D01*
X52865Y-34635D01*
X52468Y-34370D01*
X52000Y-34277D01*
D02*
G37*
G36*
X48000Y-39777D02*
X47532Y-39870D01*
X47135Y-40135D01*
X47034Y-40286D01*
X-15465D01*
X-15739Y-40341D01*
X-15970Y-40495D01*
X-19787Y-44312D01*
X-19965Y-44276D01*
X-20434Y-44370D01*
X-20831Y-44635D01*
X-21096Y-45032D01*
X-21189Y-45500D01*
X-21096Y-45968D01*
X-20831Y-46365D01*
X-20434Y-46630D01*
X-19965Y-46723D01*
X-19497Y-46630D01*
X-19100Y-46365D01*
X-18835Y-45968D01*
X-18742Y-45500D01*
X-18778Y-45321D01*
X-15170Y-41714D01*
X46582D01*
X46662Y-41786D01*
X46529Y-42165D01*
X46404Y-42286D01*
X-11000D01*
X-11273Y-42341D01*
X-11505Y-42495D01*
X-19821Y-50812D01*
X-20000Y-50776D01*
X-20468Y-50870D01*
X-20865Y-51135D01*
X-21130Y-51532D01*
X-21224Y-52000D01*
X-21130Y-52468D01*
X-20865Y-52865D01*
X-20468Y-53130D01*
X-20000Y-53224D01*
X-19532Y-53130D01*
X-19135Y-52865D01*
X-18870Y-52468D01*
X-18777Y-52000D01*
X-18812Y-51821D01*
X-10704Y-43714D01*
X48404D01*
X48529Y-43835D01*
X48662Y-44214D01*
X48582Y-44286D01*
X26000D01*
X25727Y-44341D01*
X25495Y-44495D01*
X18216Y-51775D01*
X18061Y-52006D01*
X18007Y-52280D01*
Y-79247D01*
X17754Y-79416D01*
X17579Y-79678D01*
X17517Y-79988D01*
Y-91012D01*
X17579Y-91321D01*
X17754Y-91584D01*
X18017Y-91760D01*
X18327Y-91821D01*
X19114D01*
X19424Y-91760D01*
X19686Y-91584D01*
X19862Y-91321D01*
X19923Y-91012D01*
Y-79988D01*
X19862Y-79678D01*
X19686Y-79416D01*
X19434Y-79247D01*
Y-52575D01*
X26296Y-45714D01*
X49034D01*
X49135Y-45865D01*
X49532Y-46130D01*
X50000Y-46224D01*
X50468Y-46130D01*
X50865Y-45865D01*
X51130Y-45468D01*
X51223Y-45000D01*
X51130Y-44532D01*
X51464Y-44131D01*
X51468Y-44130D01*
X51865Y-43865D01*
X52130Y-43468D01*
X52223Y-43000D01*
X52130Y-42532D01*
X51865Y-42135D01*
X51468Y-41870D01*
X51000Y-41776D01*
X50532Y-41870D01*
X50135Y-42135D01*
X50034Y-42286D01*
X49135D01*
X49007Y-42087D01*
X48918Y-41786D01*
X49130Y-41468D01*
X49224Y-41000D01*
X49130Y-40532D01*
X48865Y-40135D01*
X48468Y-39870D01*
X48000Y-39777D01*
D02*
G37*
G36*
X-71839Y-56262D02*
X-72763Y-56446D01*
X-73546Y-56970D01*
X-74070Y-57753D01*
X-74253Y-58677D01*
X-74070Y-59601D01*
X-73546Y-60385D01*
X-72763Y-60908D01*
X-71839Y-61092D01*
X-70914Y-60908D01*
X-70131Y-60385D01*
X-69608Y-59601D01*
X-69424Y-58677D01*
X-69608Y-57753D01*
X-70131Y-56970D01*
X-70914Y-56446D01*
X-71839Y-56262D01*
D02*
G37*
G36*
X-14000Y-56277D02*
X-14468Y-56370D01*
X-14865Y-56635D01*
X-15130Y-57032D01*
X-15224Y-57500D01*
X-15130Y-57968D01*
X-15020Y-58134D01*
Y-63500D01*
X-14942Y-63890D01*
X-14721Y-64221D01*
X-14484Y-64458D01*
X-15721Y-65695D01*
X-15942Y-66026D01*
X-16020Y-66416D01*
Y-82500D01*
X-15942Y-82890D01*
X-15721Y-83221D01*
X-8221Y-90721D01*
X-7890Y-90942D01*
X-7500Y-91020D01*
X-4378D01*
X-4213Y-91130D01*
X-3745Y-91224D01*
X-3276Y-91130D01*
X-2879Y-90865D01*
X-2614Y-90468D01*
X-2521Y-90000D01*
X-2614Y-89532D01*
X-2879Y-89135D01*
X-3276Y-88870D01*
X-3745Y-88776D01*
X-4213Y-88870D01*
X-4378Y-88980D01*
X-7078D01*
X-13980Y-82078D01*
Y-66838D01*
X-13162Y-66020D01*
X13366D01*
X13532Y-66130D01*
X14000Y-66224D01*
X14468Y-66130D01*
X14865Y-65865D01*
X15130Y-65468D01*
X15224Y-65000D01*
X15130Y-64532D01*
X14865Y-64135D01*
X14468Y-63870D01*
X14000Y-63776D01*
X13532Y-63870D01*
X13366Y-63980D01*
X-12078D01*
X-12980Y-63078D01*
Y-58134D01*
X-12870Y-57968D01*
X-12776Y-57500D01*
X-12870Y-57032D01*
X-13135Y-56635D01*
X-13532Y-56370D01*
X-14000Y-56277D01*
D02*
G37*
G36*
X10847Y-79179D02*
X10059D01*
X9749Y-79241D01*
X9487Y-79416D01*
X9340Y-79636D01*
X9075Y-79662D01*
X8810Y-79636D01*
X8663Y-79416D01*
X8400Y-79241D01*
X8091Y-79179D01*
X7303D01*
X6994Y-79241D01*
X6731Y-79416D01*
X6584Y-79636D01*
X6319Y-79662D01*
X6054Y-79636D01*
X5907Y-79416D01*
X5644Y-79241D01*
X5335Y-79179D01*
X4547D01*
X4238Y-79241D01*
X3975Y-79416D01*
X3800Y-79678D01*
X3738Y-79988D01*
Y-90667D01*
X2321Y-92084D01*
X-4400D01*
X-4712Y-92146D01*
X-4977Y-92323D01*
X-4977Y-92323D01*
X-7442Y-94788D01*
X-7500Y-94776D01*
X-7968Y-94870D01*
X-8365Y-95135D01*
X-8630Y-95532D01*
X-8724Y-96000D01*
X-8630Y-96468D01*
X-8365Y-96865D01*
X-7968Y-97130D01*
X-7500Y-97224D01*
X-7032Y-97130D01*
X-6635Y-96865D01*
X-6370Y-96468D01*
X-6277Y-96000D01*
X-6288Y-95942D01*
X-4062Y-93716D01*
X-1975D01*
X-1667Y-94216D01*
X-1723Y-94500D01*
X-1630Y-94968D01*
X-1365Y-95365D01*
X-968Y-95630D01*
X-500Y-95723D01*
X-32Y-95630D01*
X134Y-95520D01*
X6994D01*
X7384Y-95442D01*
X7715Y-95221D01*
X8418Y-94518D01*
X8639Y-94187D01*
X8716Y-93797D01*
Y-91671D01*
X8902Y-91532D01*
X9487Y-91584D01*
X9749Y-91760D01*
X10059Y-91821D01*
X10847D01*
X11156Y-91760D01*
X11419Y-91584D01*
X11594Y-91321D01*
X11656Y-91012D01*
Y-79988D01*
X11594Y-79678D01*
X11419Y-79416D01*
X11156Y-79241D01*
X10847Y-79179D01*
D02*
G37*
G36*
X18500Y-101277D02*
X18032Y-101370D01*
X17635Y-101635D01*
X17568Y-101735D01*
X15432D01*
X15365Y-101635D01*
X14968Y-101370D01*
X14500Y-101277D01*
X14032Y-101370D01*
X13635Y-101635D01*
X13370Y-102032D01*
X13276Y-102500D01*
X13370Y-102968D01*
X13635Y-103365D01*
X14032Y-103630D01*
X14500Y-103724D01*
X14968Y-103630D01*
X15365Y-103365D01*
X15432Y-103265D01*
X17568D01*
X17635Y-103365D01*
X18032Y-103630D01*
X18500Y-103724D01*
X18968Y-103630D01*
X19365Y-103365D01*
X19630Y-102968D01*
X19724Y-102500D01*
X19630Y-102032D01*
X19365Y-101635D01*
X18968Y-101370D01*
X18500Y-101277D01*
D02*
G37*
G36*
X56500Y-100777D02*
X56032Y-100870D01*
X55866Y-100980D01*
X43446D01*
X43056Y-101058D01*
X42725Y-101279D01*
X29524Y-114480D01*
X5422D01*
X-5279Y-103779D01*
X-5610Y-103558D01*
X-6000Y-103480D01*
X-43500D01*
X-43890Y-103558D01*
X-44221Y-103779D01*
X-51922Y-111480D01*
X-59366D01*
X-59532Y-111370D01*
X-60000Y-111276D01*
X-60468Y-111370D01*
X-60865Y-111635D01*
X-61130Y-112032D01*
X-61224Y-112500D01*
X-61130Y-112968D01*
X-60865Y-113365D01*
X-60468Y-113630D01*
X-60000Y-113724D01*
X-59532Y-113630D01*
X-59366Y-113520D01*
X-51500D01*
X-51110Y-113442D01*
X-50779Y-113221D01*
X-43078Y-105520D01*
X-6422D01*
X4279Y-116221D01*
X4610Y-116442D01*
X5000Y-116520D01*
X29946D01*
X30336Y-116442D01*
X30667Y-116221D01*
X43868Y-103020D01*
X55866D01*
X56032Y-103130D01*
X56500Y-103224D01*
X56968Y-103130D01*
X57365Y-102865D01*
X57630Y-102468D01*
X57723Y-102000D01*
X57630Y-101532D01*
X57365Y-101135D01*
X56968Y-100870D01*
X56500Y-100777D01*
D02*
G37*
G36*
X28878Y-101429D02*
X28223Y-101560D01*
X27667Y-101931D01*
X27296Y-102486D01*
X27165Y-103142D01*
X27296Y-103797D01*
X27667Y-104353D01*
X28223Y-104724D01*
X28878Y-104854D01*
X29533Y-104724D01*
X30089Y-104353D01*
X30460Y-103797D01*
X30590Y-103142D01*
X30460Y-102486D01*
X30089Y-101931D01*
X29533Y-101560D01*
X28878Y-101429D01*
D02*
G37*
G36*
X6122D02*
X5467Y-101560D01*
X4911Y-101931D01*
X4540Y-102486D01*
X4410Y-103142D01*
X4540Y-103797D01*
X4911Y-104353D01*
X5467Y-104724D01*
X6122Y-104854D01*
X6777Y-104724D01*
X7333Y-104353D01*
X7704Y-103797D01*
X7835Y-103142D01*
X7704Y-102486D01*
X7333Y-101931D01*
X6777Y-101560D01*
X6122Y-101429D01*
D02*
G37*
%LPD*%
D12*
X55500Y-43000D02*
X56500Y-42000D01*
Y-39953D01*
X80000Y-18500D02*
Y-7000D01*
X77000Y-4000D02*
X80000Y-7000D01*
X54000Y-4000D02*
X77000D01*
X49000Y-9000D02*
X54000Y-4000D01*
X55500Y-74865D02*
Y-43000D01*
X44621Y-21000D02*
X57121Y-33500D01*
X96474D01*
X-19965Y-21000D02*
X44621D01*
X-17431Y-31500D02*
X53000D01*
X55500Y-74865D02*
X59500Y-78865D01*
Y-111000D02*
Y-78865D01*
X-57500Y11500D02*
X-35000D01*
X-4500Y-19000D02*
X62500D01*
X-35000Y11500D02*
X-4500Y-19000D01*
X62500Y-13000D02*
X70000Y-20500D01*
X-6500Y-13000D02*
X62500D01*
X97487Y-45487D02*
Y-34513D01*
Y-45487D02*
X97500Y-45500D01*
X96474Y-33500D02*
X97487Y-34513D01*
X-19931Y-29000D02*
X-17431Y-31500D01*
Y-35500D02*
X52000D01*
X-19939Y-38008D02*
X-17431Y-35500D01*
X-19965Y-45500D02*
X-15465Y-41000D01*
X48000D01*
X18721Y-52280D02*
X26000Y-45000D01*
X-11000Y-43000D02*
X51000D01*
X26000Y-45000D02*
X50000D01*
X-20000Y-52000D02*
X-11000Y-43000D01*
X18721Y-85500D02*
Y-52280D01*
X51000Y-55000D02*
X51002Y-55001D01*
X51499D01*
X51500Y-55000D01*
X31500D02*
X51000D01*
X29744Y-56756D02*
X31500Y-55000D01*
X29744Y-85500D02*
Y-56756D01*
X95561Y-57421D02*
X101000Y-51982D01*
X95561Y-57561D02*
Y-57421D01*
X85823Y-27000D02*
X100621D01*
X103000Y-29379D01*
X63500Y-29500D02*
X66200Y-32200D01*
X96589D01*
X84586Y-30000D02*
X97500D01*
X81984Y-27398D02*
X84586Y-30000D01*
X97500D02*
X105000Y-37500D01*
X86000Y-29000D02*
X100000D01*
X83323Y-26323D02*
X86000Y-29000D01*
X96589Y-32200D02*
X102500Y-38111D01*
X81984Y-18016D02*
X84500Y-15500D01*
X81984Y-27398D02*
Y-18016D01*
X84323Y-25500D02*
Y-19341D01*
X94164Y-9500D02*
X108500D01*
X83323Y-26323D02*
Y-18927D01*
X93750Y-8500D02*
X108000D01*
X84323Y-19341D02*
X94164Y-9500D01*
X83323Y-18927D02*
X93750Y-8500D01*
X110000Y-6500D02*
Y1500D01*
X108000Y-8500D02*
X110000Y-6500D01*
X108500Y-9500D02*
X114000Y-4000D01*
Y8000D01*
X110000Y12000D02*
X114000Y8000D01*
X84323Y-25500D02*
X85823Y-27000D01*
X103000Y-31500D02*
Y-29379D01*
X105000Y-53500D02*
Y-37500D01*
X95491Y-55000D02*
X99500Y-50991D01*
Y-44500D01*
X101000Y-51982D02*
Y-41500D01*
X102000Y-57000D02*
Y-44021D01*
X102500Y-43521D01*
Y-38111D01*
X103500Y-55000D02*
X105000Y-53500D01*
X86500Y-109500D02*
X97500D01*
X103500Y-103500D01*
Y-55000D01*
D16*
X54000Y-87781D02*
Y-39500D01*
X33281Y-108500D02*
X54000Y-87781D01*
Y-39500D02*
X56000Y-37500D01*
X59000D01*
X30716Y-108500D02*
X33281D01*
X30000Y-109000D02*
X30217D01*
X30716Y-108500D01*
X97044Y-31100D02*
X103600Y-37656D01*
X69000Y-15970D02*
X84130Y-31100D01*
X97044D01*
X69000Y-15970D02*
Y-9000D01*
X-7500Y-96000D02*
X-4400Y-92900D01*
X2659D01*
X103500Y-47500D02*
X103600Y-47400D01*
Y-37656D01*
X2659Y-92900D02*
X4941Y-90618D01*
Y-85500D01*
D66*
X-60000Y-112500D02*
X-51500D01*
X-43500Y-104500D01*
X-6000D01*
X5000Y-115500D01*
X29946D01*
X43446Y-102000D01*
X56500D01*
X-14000Y-63500D02*
X-12500Y-65000D01*
X14000D01*
X-14000Y-63500D02*
Y-57500D01*
X-13584Y-65000D02*
X-12500D01*
X-15000Y-82500D02*
X-7500Y-90000D01*
X-15000Y-82500D02*
Y-66416D01*
X-7500Y-90000D02*
X-3745D01*
X-15000Y-66416D02*
X-13584Y-65000D01*
X7697Y-85500D02*
X10453D01*
X7697Y-93797D02*
Y-85500D01*
X6994Y-94500D02*
X7697Y-93797D01*
X-500Y-94500D02*
X6994D01*
D67*
X91234Y-57050D02*
X91784Y-56500D01*
X92000D01*
X63050Y-57050D02*
X91234D01*
X59000Y-53000D02*
X63050Y-57050D01*
X30000Y-53000D02*
X51500D01*
X26988Y-56012D02*
X30000Y-53000D01*
X26988Y-85500D02*
Y-56012D01*
X24232Y-85500D02*
Y-54268D01*
X90000Y-55500D02*
Y-52000D01*
X88000Y-50000D02*
X90000Y-52000D01*
X57500Y-50000D02*
X88000D01*
X24232Y-54268D02*
X28500Y-50000D01*
X51500D01*
X14500Y-102500D02*
X18500D01*
D69*
X6122Y-103142D02*
D03*
X28878D02*
D03*
D70*
X34528Y-116921D02*
D03*
X472D02*
D03*
D71*
X34528Y-101173D02*
D03*
X472D02*
D03*
D72*
X110000Y12000D02*
D03*
X100000D02*
D03*
X-67500Y1500D02*
D03*
X-57500D02*
D03*
X-67500Y11500D02*
D03*
X-57500D02*
D03*
X100000Y1500D02*
D03*
X110000D02*
D03*
D73*
X90000Y12000D02*
D03*
X-77500Y1500D02*
D03*
Y11500D02*
D03*
X90000Y1500D02*
D03*
D74*
X86484Y-97476D02*
D03*
X83484Y-97484D02*
D03*
X80984Y-97492D02*
D03*
X80992Y-99992D02*
D03*
X94984Y-107492D02*
D03*
Y-102992D02*
D03*
X111992Y-106492D02*
D03*
X108492D02*
D03*
X104992D02*
D03*
X97992Y-104992D02*
D03*
X94992D02*
D03*
X86492Y-99992D02*
D03*
X83492D02*
D03*
X125492Y-82984D02*
D03*
X122492Y-82992D02*
D03*
X119492Y-82984D02*
D03*
X116992Y-82992D02*
D03*
X105492Y-83992D02*
D03*
X83992Y-41992D02*
D03*
X86492Y-43492D02*
D03*
X81492D02*
D03*
X75992Y-42492D02*
D03*
X79492Y-40492D02*
D03*
X82992Y-38992D02*
D03*
X86492Y-39492D02*
D03*
Y-36492D02*
D03*
X82992D02*
D03*
X79492D02*
D03*
X75992D02*
D03*
X-60000Y-112500D02*
D03*
X56500Y-102000D02*
D03*
Y-39953D02*
D03*
X80000Y-18500D02*
D03*
X49000Y-9000D02*
D03*
X53000Y-31500D02*
D03*
X59500Y-111000D02*
D03*
X62500Y-19000D02*
D03*
X70000Y-20500D02*
D03*
X-6500Y-13000D02*
D03*
X97500Y-45500D02*
D03*
X-19965Y-21000D02*
D03*
X-19931Y-29000D02*
D03*
X-19939Y-38008D02*
D03*
X52000Y-35500D02*
D03*
X-19965Y-45500D02*
D03*
X48000Y-41000D02*
D03*
X51000Y-43000D02*
D03*
X-20000Y-52000D02*
D03*
X51500Y-55000D02*
D03*
X92000Y-56500D02*
D03*
X95561Y-57561D02*
D03*
X59000Y-53000D02*
D03*
X51500D02*
D03*
X90000Y-55500D02*
D03*
X57500Y-50000D02*
D03*
X51500D02*
D03*
X50000Y-45000D02*
D03*
X59000Y-37500D02*
D03*
X30000Y-109000D02*
D03*
X100000Y-29000D02*
D03*
X84500Y-15500D02*
D03*
X103000Y-31500D02*
D03*
X-3745Y-90000D02*
D03*
X-7500Y-96000D02*
D03*
X-14000Y-57500D02*
D03*
X14000Y-65000D02*
D03*
X99500Y-44500D02*
D03*
X95491Y-55000D02*
D03*
X103500Y-47500D02*
D03*
X97500Y-49327D02*
D03*
X101000Y-41500D02*
D03*
X86500Y-109500D02*
D03*
X69000Y-9000D02*
D03*
X102000Y-57000D02*
D03*
X63500Y-29500D02*
D03*
X-500Y-94500D02*
D03*
X14500Y-102500D02*
D03*
X18500D02*
D03*
D75*
X-71839Y-27260D02*
D03*
Y-58677D02*
D03*
D76*
X32500Y-85500D02*
D03*
X24232D02*
D03*
X21476D02*
D03*
X13209D02*
D03*
X15965D02*
D03*
X4941D02*
D03*
X7697D02*
D03*
X26988D02*
D03*
X18721D02*
D03*
X10453D02*
D03*
X2185D02*
D03*
X29744D02*
D03*
M02*
