G04*
G04 #@! TF.GenerationSoftware,Altium Limited,Altium Designer,21.9.2 (33)*
G04*
G04 Layer_Color=2752767*
%FSLAX25Y25*%
%MOIN*%
G70*
G04*
G04 #@! TF.SameCoordinates,32D54DCA-AF5D-4614-AEAA-03D789E6E0F7*
G04*
G04*
G04 #@! TF.FilePolarity,Positive*
G04*
G01*
G75*
%ADD10C,0.00600*%
%ADD11C,0.00089*%
%ADD12C,0.00200*%
%ADD13C,0.00267*%
D10*
X-95401Y-122365D02*
X130359D01*
Y19367D01*
X-95401D02*
X130359D01*
X-95401Y-122365D02*
Y19367D01*
D11*
X17479Y-122365D02*
Y19367D01*
X-95401Y-122365D02*
Y19367D01*
X130359D01*
Y-122365D02*
Y19367D01*
X-95401Y-122365D02*
X130359D01*
X-95401D02*
Y19367D01*
X130359D01*
Y-122365D02*
Y19367D01*
X-95401Y-122365D02*
X130359D01*
D12*
X5322Y-103942D02*
Y-102342D01*
X6922D01*
Y-103942D01*
X5322D01*
X28078D02*
Y-102342D01*
X29678D01*
Y-103942D01*
X28078D01*
X34528Y-101973D02*
X33728Y-100373D01*
X35328D01*
X34528Y-101973D01*
X472D02*
X-328Y-100373D01*
X1272D01*
X472Y-101973D01*
X110000Y11200D02*
X110400Y11600D01*
X110800D01*
X110400Y12000D01*
X110800Y12400D01*
X110400D01*
X110000Y12800D01*
X109600Y12400D01*
X109200D01*
X109600Y12000D01*
X109200Y11600D01*
X109600D01*
X110000Y11200D01*
X90000D02*
X90400Y11600D01*
X90800D01*
X90400Y12000D01*
X90800Y12400D01*
X90400D01*
X90000Y12800D01*
X89600Y12400D01*
X89200D01*
X89600Y12000D01*
X89200Y11600D01*
X89600D01*
X90000Y11200D01*
X100000D02*
X100400Y11600D01*
X100800D01*
X100400Y12000D01*
X100800Y12400D01*
X100400D01*
X100000Y12800D01*
X99600Y12400D01*
X99200D01*
X99600Y12000D01*
X99200Y11600D01*
X99600D01*
X100000Y11200D01*
X-67500Y700D02*
X-67100Y1100D01*
X-66700D01*
X-67100Y1500D01*
X-66700Y1900D01*
X-67100D01*
X-67500Y2300D01*
X-67900Y1900D01*
X-68300D01*
X-67900Y1500D01*
X-68300Y1100D01*
X-67900D01*
X-67500Y700D01*
X-77500D02*
X-77100Y1100D01*
X-76700D01*
X-77100Y1500D01*
X-76700Y1900D01*
X-77100D01*
X-77500Y2300D01*
X-77900Y1900D01*
X-78300D01*
X-77900Y1500D01*
X-78300Y1100D01*
X-77900D01*
X-77500Y700D01*
X-57500D02*
X-57100Y1100D01*
X-56700D01*
X-57100Y1500D01*
X-56700Y1900D01*
X-57100D01*
X-57500Y2300D01*
X-57900Y1900D01*
X-58300D01*
X-57900Y1500D01*
X-58300Y1100D01*
X-57900D01*
X-57500Y700D01*
X-67500Y10700D02*
X-67100Y11100D01*
X-66700D01*
X-67100Y11500D01*
X-66700Y11900D01*
X-67100D01*
X-67500Y12300D01*
X-67900Y11900D01*
X-68300D01*
X-67900Y11500D01*
X-68300Y11100D01*
X-67900D01*
X-67500Y10700D01*
X-77500D02*
X-77100Y11100D01*
X-76700D01*
X-77100Y11500D01*
X-76700Y11900D01*
X-77100D01*
X-77500Y12300D01*
X-77900Y11900D01*
X-78300D01*
X-77900Y11500D01*
X-78300Y11100D01*
X-77900D01*
X-77500Y10700D01*
X-57500D02*
X-57100Y11100D01*
X-56700D01*
X-57100Y11500D01*
X-56700Y11900D01*
X-57100D01*
X-57500Y12300D01*
X-57900Y11900D01*
X-58300D01*
X-57900Y11500D01*
X-58300Y11100D01*
X-57900D01*
X-57500Y10700D01*
X100000Y700D02*
X100400Y1100D01*
X100800D01*
X100400Y1500D01*
X100800Y1900D01*
X100400D01*
X100000Y2300D01*
X99600Y1900D01*
X99200D01*
X99600Y1500D01*
X99200Y1100D01*
X99600D01*
X100000Y700D01*
X90000D02*
X90400Y1100D01*
X90800D01*
X90400Y1500D01*
X90800Y1900D01*
X90400D01*
X90000Y2300D01*
X89600Y1900D01*
X89200D01*
X89600Y1500D01*
X89200Y1100D01*
X89600D01*
X90000Y700D01*
X110000D02*
X110400Y1100D01*
X110800D01*
X110400Y1500D01*
X110800Y1900D01*
X110400D01*
X110000Y2300D01*
X109600Y1900D01*
X109200D01*
X109600Y1500D01*
X109200Y1100D01*
X109600D01*
X110000Y700D01*
X85684Y-98276D02*
X86084Y-97476D01*
X85684Y-96676D01*
X86484Y-97076D01*
X87284Y-96676D01*
X86884Y-97476D01*
X87284Y-98276D01*
X86484Y-97876D01*
X85684Y-98276D01*
X82684Y-98284D02*
X83084Y-97484D01*
X82684Y-96684D01*
X83484Y-97084D01*
X84284Y-96684D01*
X83884Y-97484D01*
X84284Y-98284D01*
X83484Y-97884D01*
X82684Y-98284D01*
X80184Y-98292D02*
X80584Y-97492D01*
X80184Y-96692D01*
X80984Y-97092D01*
X81784Y-96692D01*
X81384Y-97492D01*
X81784Y-98292D01*
X80984Y-97892D01*
X80184Y-98292D01*
X80192Y-100792D02*
X80592Y-99992D01*
X80192Y-99192D01*
X80992Y-99592D01*
X81792Y-99192D01*
X81392Y-99992D01*
X81792Y-100792D01*
X80992Y-100392D01*
X80192Y-100792D01*
X94184Y-108292D02*
X94584Y-107492D01*
X94184Y-106692D01*
X94984Y-107092D01*
X95784Y-106692D01*
X95384Y-107492D01*
X95784Y-108292D01*
X94984Y-107892D01*
X94184Y-108292D01*
Y-103792D02*
X94584Y-102992D01*
X94184Y-102192D01*
X94984Y-102592D01*
X95784Y-102192D01*
X95384Y-102992D01*
X95784Y-103792D01*
X94984Y-103392D01*
X94184Y-103792D01*
X111192Y-107292D02*
X111592Y-106492D01*
X111192Y-105692D01*
X111992Y-106092D01*
X112792Y-105692D01*
X112392Y-106492D01*
X112792Y-107292D01*
X111992Y-106892D01*
X111192Y-107292D01*
X107692D02*
X108092Y-106492D01*
X107692Y-105692D01*
X108492Y-106092D01*
X109292Y-105692D01*
X108892Y-106492D01*
X109292Y-107292D01*
X108492Y-106892D01*
X107692Y-107292D01*
X104192D02*
X104592Y-106492D01*
X104192Y-105692D01*
X104992Y-106092D01*
X105792Y-105692D01*
X105392Y-106492D01*
X105792Y-107292D01*
X104992Y-106892D01*
X104192Y-107292D01*
X97192Y-105792D02*
X97592Y-104992D01*
X97192Y-104192D01*
X97992Y-104592D01*
X98792Y-104192D01*
X98392Y-104992D01*
X98792Y-105792D01*
X97992Y-105392D01*
X97192Y-105792D01*
X94192D02*
X94592Y-104992D01*
X94192Y-104192D01*
X94992Y-104592D01*
X95792Y-104192D01*
X95392Y-104992D01*
X95792Y-105792D01*
X94992Y-105392D01*
X94192Y-105792D01*
X85692Y-100792D02*
X86092Y-99992D01*
X85692Y-99192D01*
X86492Y-99592D01*
X87292Y-99192D01*
X86892Y-99992D01*
X87292Y-100792D01*
X86492Y-100392D01*
X85692Y-100792D01*
X82692D02*
X83092Y-99992D01*
X82692Y-99192D01*
X83492Y-99592D01*
X84292Y-99192D01*
X83892Y-99992D01*
X84292Y-100792D01*
X83492Y-100392D01*
X82692Y-100792D01*
X124692Y-83784D02*
X125092Y-82984D01*
X124692Y-82184D01*
X125492Y-82584D01*
X126292Y-82184D01*
X125892Y-82984D01*
X126292Y-83784D01*
X125492Y-83384D01*
X124692Y-83784D01*
X121692Y-83792D02*
X122092Y-82992D01*
X121692Y-82192D01*
X122492Y-82592D01*
X123292Y-82192D01*
X122892Y-82992D01*
X123292Y-83792D01*
X122492Y-83392D01*
X121692Y-83792D01*
X118692Y-83784D02*
X119092Y-82984D01*
X118692Y-82184D01*
X119492Y-82584D01*
X120292Y-82184D01*
X119892Y-82984D01*
X120292Y-83784D01*
X119492Y-83384D01*
X118692Y-83784D01*
X116192Y-83792D02*
X116592Y-82992D01*
X116192Y-82192D01*
X116992Y-82592D01*
X117792Y-82192D01*
X117392Y-82992D01*
X117792Y-83792D01*
X116992Y-83392D01*
X116192Y-83792D01*
X104692Y-84792D02*
X105092Y-83992D01*
X104692Y-83192D01*
X105492Y-83592D01*
X106292Y-83192D01*
X105892Y-83992D01*
X106292Y-84792D01*
X105492Y-84392D01*
X104692Y-84792D01*
X83192Y-42792D02*
X83592Y-41992D01*
X83192Y-41192D01*
X83992Y-41592D01*
X84792Y-41192D01*
X84392Y-41992D01*
X84792Y-42792D01*
X83992Y-42392D01*
X83192Y-42792D01*
X85692Y-44292D02*
X86092Y-43492D01*
X85692Y-42692D01*
X86492Y-43092D01*
X87292Y-42692D01*
X86892Y-43492D01*
X87292Y-44292D01*
X86492Y-43892D01*
X85692Y-44292D01*
X80692D02*
X81092Y-43492D01*
X80692Y-42692D01*
X81492Y-43092D01*
X82292Y-42692D01*
X81892Y-43492D01*
X82292Y-44292D01*
X81492Y-43892D01*
X80692Y-44292D01*
X75192Y-43292D02*
X75592Y-42492D01*
X75192Y-41692D01*
X75992Y-42092D01*
X76792Y-41692D01*
X76392Y-42492D01*
X76792Y-43292D01*
X75992Y-42892D01*
X75192Y-43292D01*
X78692Y-41292D02*
X79092Y-40492D01*
X78692Y-39692D01*
X79492Y-40092D01*
X80292Y-39692D01*
X79892Y-40492D01*
X80292Y-41292D01*
X79492Y-40892D01*
X78692Y-41292D01*
X82192Y-39792D02*
X82592Y-38992D01*
X82192Y-38192D01*
X82992Y-38592D01*
X83792Y-38192D01*
X83392Y-38992D01*
X83792Y-39792D01*
X82992Y-39392D01*
X82192Y-39792D01*
X85692Y-40292D02*
X86092Y-39492D01*
X85692Y-38692D01*
X86492Y-39092D01*
X87292Y-38692D01*
X86892Y-39492D01*
X87292Y-40292D01*
X86492Y-39892D01*
X85692Y-40292D01*
Y-37292D02*
X86092Y-36492D01*
X85692Y-35692D01*
X86492Y-36092D01*
X87292Y-35692D01*
X86892Y-36492D01*
X87292Y-37292D01*
X86492Y-36892D01*
X85692Y-37292D01*
X82192D02*
X82592Y-36492D01*
X82192Y-35692D01*
X82992Y-36092D01*
X83792Y-35692D01*
X83392Y-36492D01*
X83792Y-37292D01*
X82992Y-36892D01*
X82192Y-37292D01*
X78692D02*
X79092Y-36492D01*
X78692Y-35692D01*
X79492Y-36092D01*
X80292Y-35692D01*
X79892Y-36492D01*
X80292Y-37292D01*
X79492Y-36892D01*
X78692Y-37292D01*
X75192D02*
X75592Y-36492D01*
X75192Y-35692D01*
X75992Y-36092D01*
X76792Y-35692D01*
X76392Y-36492D01*
X76792Y-37292D01*
X75992Y-36892D01*
X75192Y-37292D01*
X-60800Y-113300D02*
X-60400Y-112500D01*
X-60800Y-111700D01*
X-60000Y-112100D01*
X-59200Y-111700D01*
X-59600Y-112500D01*
X-59200Y-113300D01*
X-60000Y-112900D01*
X-60800Y-113300D01*
X55700Y-102800D02*
X56100Y-102000D01*
X55700Y-101200D01*
X56500Y-101600D01*
X57300Y-101200D01*
X56900Y-102000D01*
X57300Y-102800D01*
X56500Y-102400D01*
X55700Y-102800D01*
Y-40753D02*
X56100Y-39953D01*
X55700Y-39153D01*
X56500Y-39553D01*
X57300Y-39153D01*
X56900Y-39953D01*
X57300Y-40753D01*
X56500Y-40353D01*
X55700Y-40753D01*
X79200Y-19300D02*
X79600Y-18500D01*
X79200Y-17700D01*
X80000Y-18100D01*
X80800Y-17700D01*
X80400Y-18500D01*
X80800Y-19300D01*
X80000Y-18900D01*
X79200Y-19300D01*
X48200Y-9800D02*
X48600Y-9000D01*
X48200Y-8200D01*
X49000Y-8600D01*
X49800Y-8200D01*
X49400Y-9000D01*
X49800Y-9800D01*
X49000Y-9400D01*
X48200Y-9800D01*
X52200Y-32300D02*
X52600Y-31500D01*
X52200Y-30700D01*
X53000Y-31100D01*
X53800Y-30700D01*
X53400Y-31500D01*
X53800Y-32300D01*
X53000Y-31900D01*
X52200Y-32300D01*
X58700Y-111800D02*
X59100Y-111000D01*
X58700Y-110200D01*
X59500Y-110600D01*
X60300Y-110200D01*
X59900Y-111000D01*
X60300Y-111800D01*
X59500Y-111400D01*
X58700Y-111800D01*
X61700Y-19800D02*
X62100Y-19000D01*
X61700Y-18200D01*
X62500Y-18600D01*
X63300Y-18200D01*
X62900Y-19000D01*
X63300Y-19800D01*
X62500Y-19400D01*
X61700Y-19800D01*
X69200Y-21300D02*
X69600Y-20500D01*
X69200Y-19700D01*
X70000Y-20100D01*
X70800Y-19700D01*
X70400Y-20500D01*
X70800Y-21300D01*
X70000Y-20900D01*
X69200Y-21300D01*
X-7300Y-13800D02*
X-6900Y-13000D01*
X-7300Y-12200D01*
X-6500Y-12600D01*
X-5700Y-12200D01*
X-6100Y-13000D01*
X-5700Y-13800D01*
X-6500Y-13400D01*
X-7300Y-13800D01*
X96700Y-46300D02*
X97100Y-45500D01*
X96700Y-44700D01*
X97500Y-45100D01*
X98300Y-44700D01*
X97900Y-45500D01*
X98300Y-46300D01*
X97500Y-45900D01*
X96700Y-46300D01*
X-20765Y-21800D02*
X-20366Y-21000D01*
X-20765Y-20200D01*
X-19965Y-20600D01*
X-19165Y-20200D01*
X-19566Y-21000D01*
X-19165Y-21800D01*
X-19965Y-21400D01*
X-20765Y-21800D01*
X-20731Y-29800D02*
X-20331Y-29000D01*
X-20731Y-28200D01*
X-19931Y-28600D01*
X-19131Y-28200D01*
X-19531Y-29000D01*
X-19131Y-29800D01*
X-19931Y-29400D01*
X-20731Y-29800D01*
X-20739Y-38808D02*
X-20339Y-38008D01*
X-20739Y-37208D01*
X-19939Y-37608D01*
X-19139Y-37208D01*
X-19539Y-38008D01*
X-19139Y-38808D01*
X-19939Y-38408D01*
X-20739Y-38808D01*
X51200Y-36300D02*
X51600Y-35500D01*
X51200Y-34700D01*
X52000Y-35100D01*
X52800Y-34700D01*
X52400Y-35500D01*
X52800Y-36300D01*
X52000Y-35900D01*
X51200Y-36300D01*
X-20765Y-46300D02*
X-20366Y-45500D01*
X-20765Y-44700D01*
X-19965Y-45100D01*
X-19165Y-44700D01*
X-19566Y-45500D01*
X-19165Y-46300D01*
X-19965Y-45900D01*
X-20765Y-46300D01*
X47200Y-41800D02*
X47600Y-41000D01*
X47200Y-40200D01*
X48000Y-40600D01*
X48800Y-40200D01*
X48400Y-41000D01*
X48800Y-41800D01*
X48000Y-41400D01*
X47200Y-41800D01*
X50200Y-43800D02*
X50600Y-43000D01*
X50200Y-42200D01*
X51000Y-42600D01*
X51800Y-42200D01*
X51400Y-43000D01*
X51800Y-43800D01*
X51000Y-43400D01*
X50200Y-43800D01*
X-20800Y-52800D02*
X-20400Y-52000D01*
X-20800Y-51200D01*
X-20000Y-51600D01*
X-19200Y-51200D01*
X-19600Y-52000D01*
X-19200Y-52800D01*
X-20000Y-52400D01*
X-20800Y-52800D01*
X50700Y-55800D02*
X51100Y-55000D01*
X50700Y-54200D01*
X51500Y-54600D01*
X52300Y-54200D01*
X51900Y-55000D01*
X52300Y-55800D01*
X51500Y-55400D01*
X50700Y-55800D01*
X91200Y-57300D02*
X91600Y-56500D01*
X91200Y-55700D01*
X92000Y-56100D01*
X92800Y-55700D01*
X92400Y-56500D01*
X92800Y-57300D01*
X92000Y-56900D01*
X91200Y-57300D01*
X94761Y-58361D02*
X95161Y-57561D01*
X94761Y-56761D01*
X95561Y-57161D01*
X96361Y-56761D01*
X95961Y-57561D01*
X96361Y-58361D01*
X95561Y-57961D01*
X94761Y-58361D01*
X58200Y-53800D02*
X58600Y-53000D01*
X58200Y-52200D01*
X59000Y-52600D01*
X59800Y-52200D01*
X59400Y-53000D01*
X59800Y-53800D01*
X59000Y-53400D01*
X58200Y-53800D01*
X50700D02*
X51100Y-53000D01*
X50700Y-52200D01*
X51500Y-52600D01*
X52300Y-52200D01*
X51900Y-53000D01*
X52300Y-53800D01*
X51500Y-53400D01*
X50700Y-53800D01*
X89200Y-56300D02*
X89600Y-55500D01*
X89200Y-54700D01*
X90000Y-55100D01*
X90800Y-54700D01*
X90400Y-55500D01*
X90800Y-56300D01*
X90000Y-55900D01*
X89200Y-56300D01*
X56700Y-50800D02*
X57100Y-50000D01*
X56700Y-49200D01*
X57500Y-49600D01*
X58300Y-49200D01*
X57900Y-50000D01*
X58300Y-50800D01*
X57500Y-50400D01*
X56700Y-50800D01*
X50700D02*
X51100Y-50000D01*
X50700Y-49200D01*
X51500Y-49600D01*
X52300Y-49200D01*
X51900Y-50000D01*
X52300Y-50800D01*
X51500Y-50400D01*
X50700Y-50800D01*
X49200Y-45800D02*
X49600Y-45000D01*
X49200Y-44200D01*
X50000Y-44600D01*
X50800Y-44200D01*
X50400Y-45000D01*
X50800Y-45800D01*
X50000Y-45400D01*
X49200Y-45800D01*
X58200Y-38300D02*
X58600Y-37500D01*
X58200Y-36700D01*
X59000Y-37100D01*
X59800Y-36700D01*
X59400Y-37500D01*
X59800Y-38300D01*
X59000Y-37900D01*
X58200Y-38300D01*
X29200Y-109800D02*
X29600Y-109000D01*
X29200Y-108200D01*
X30000Y-108600D01*
X30800Y-108200D01*
X30400Y-109000D01*
X30800Y-109800D01*
X30000Y-109400D01*
X29200Y-109800D01*
X99200Y-29800D02*
X99600Y-29000D01*
X99200Y-28200D01*
X100000Y-28600D01*
X100800Y-28200D01*
X100400Y-29000D01*
X100800Y-29800D01*
X100000Y-29400D01*
X99200Y-29800D01*
X83700Y-16300D02*
X84100Y-15500D01*
X83700Y-14700D01*
X84500Y-15100D01*
X85300Y-14700D01*
X84900Y-15500D01*
X85300Y-16300D01*
X84500Y-15900D01*
X83700Y-16300D01*
X102200Y-32300D02*
X102600Y-31500D01*
X102200Y-30700D01*
X103000Y-31100D01*
X103800Y-30700D01*
X103400Y-31500D01*
X103800Y-32300D01*
X103000Y-31900D01*
X102200Y-32300D01*
X-4544Y-90800D02*
X-4144Y-90000D01*
X-4544Y-89200D01*
X-3745Y-89600D01*
X-2944Y-89200D01*
X-3345Y-90000D01*
X-2944Y-90800D01*
X-3745Y-90400D01*
X-4544Y-90800D01*
X-8300Y-96800D02*
X-7900Y-96000D01*
X-8300Y-95200D01*
X-7500Y-95600D01*
X-6700Y-95200D01*
X-7100Y-96000D01*
X-6700Y-96800D01*
X-7500Y-96400D01*
X-8300Y-96800D01*
X-14800Y-58300D02*
X-14400Y-57500D01*
X-14800Y-56700D01*
X-14000Y-57100D01*
X-13200Y-56700D01*
X-13600Y-57500D01*
X-13200Y-58300D01*
X-14000Y-57900D01*
X-14800Y-58300D01*
X13200Y-65800D02*
X13600Y-65000D01*
X13200Y-64200D01*
X14000Y-64600D01*
X14800Y-64200D01*
X14400Y-65000D01*
X14800Y-65800D01*
X14000Y-65400D01*
X13200Y-65800D01*
X98700Y-45300D02*
X99100Y-44500D01*
X98700Y-43700D01*
X99500Y-44100D01*
X100300Y-43700D01*
X99900Y-44500D01*
X100300Y-45300D01*
X99500Y-44900D01*
X98700Y-45300D01*
X94691Y-55800D02*
X95091Y-55000D01*
X94691Y-54200D01*
X95491Y-54600D01*
X96291Y-54200D01*
X95891Y-55000D01*
X96291Y-55800D01*
X95491Y-55400D01*
X94691Y-55800D01*
X102700Y-48300D02*
X103100Y-47500D01*
X102700Y-46700D01*
X103500Y-47100D01*
X104300Y-46700D01*
X103900Y-47500D01*
X104300Y-48300D01*
X103500Y-47900D01*
X102700Y-48300D01*
X96700Y-50127D02*
X97100Y-49327D01*
X96700Y-48527D01*
X97500Y-48927D01*
X98300Y-48527D01*
X97900Y-49327D01*
X98300Y-50127D01*
X97500Y-49727D01*
X96700Y-50127D01*
X100200Y-42300D02*
X100600Y-41500D01*
X100200Y-40700D01*
X101000Y-41100D01*
X101800Y-40700D01*
X101400Y-41500D01*
X101800Y-42300D01*
X101000Y-41900D01*
X100200Y-42300D01*
X85700Y-110300D02*
X86100Y-109500D01*
X85700Y-108700D01*
X86500Y-109100D01*
X87300Y-108700D01*
X86900Y-109500D01*
X87300Y-110300D01*
X86500Y-109900D01*
X85700Y-110300D01*
X68200Y-9800D02*
X68600Y-9000D01*
X68200Y-8200D01*
X69000Y-8600D01*
X69800Y-8200D01*
X69400Y-9000D01*
X69800Y-9800D01*
X69000Y-9400D01*
X68200Y-9800D01*
X101200Y-57800D02*
X101600Y-57000D01*
X101200Y-56200D01*
X102000Y-56600D01*
X102800Y-56200D01*
X102400Y-57000D01*
X102800Y-57800D01*
X102000Y-57400D01*
X101200Y-57800D01*
X62700Y-30300D02*
X63100Y-29500D01*
X62700Y-28700D01*
X63500Y-29100D01*
X64300Y-28700D01*
X63900Y-29500D01*
X64300Y-30300D01*
X63500Y-29900D01*
X62700Y-30300D01*
X-1300Y-95300D02*
X-900Y-94500D01*
X-1300Y-93700D01*
X-500Y-94100D01*
X300Y-93700D01*
X-100Y-94500D01*
X300Y-95300D01*
X-500Y-94900D01*
X-1300Y-95300D01*
X13700Y-103300D02*
X14100Y-102500D01*
X13700Y-101700D01*
X14500Y-102100D01*
X15300Y-101700D01*
X14900Y-102500D01*
X15300Y-103300D01*
X14500Y-102900D01*
X13700Y-103300D01*
X17700D02*
X18100Y-102500D01*
X17700Y-101700D01*
X18500Y-102100D01*
X19300Y-101700D01*
X18900Y-102500D01*
X19300Y-103300D01*
X18500Y-102900D01*
X17700Y-103300D01*
X-72239Y-27660D02*
Y-28060D01*
X-71439D01*
Y-27660D01*
X-71039D01*
Y-26860D01*
X-71439D01*
Y-26460D01*
X-72239D01*
Y-26860D01*
X-72639D01*
Y-27660D01*
X-72239D01*
Y-59077D02*
Y-59477D01*
X-71439D01*
Y-59077D01*
X-71039D01*
Y-58277D01*
X-71439D01*
Y-57877D01*
X-72239D01*
Y-58277D01*
X-72639D01*
Y-59077D01*
X-72239D01*
D13*
X35328Y-116921D02*
G03*
X35328Y-116921I-800J0D01*
G01*
X1272D02*
G03*
X1272Y-116921I-800J0D01*
G01*
M02*
