G04*
G04 #@! TF.GenerationSoftware,Altium Limited,Altium Designer,21.9.2 (33)*
G04*
G04 Layer_Color=16711935*
%FSLAX25Y25*%
%MOIN*%
G70*
G04*
G04 #@! TF.SameCoordinates,F625CF21-14F9-4619-B10E-FD0BC141F2AC*
G04*
G04*
G04 #@! TF.FilePolarity,Negative*
G04*
G01*
G75*
%ADD38R,0.22500X0.42500*%
%ADD59C,0.03159*%
%ADD60O,0.04537X0.06899*%
%ADD61O,0.04537X0.08868*%
%ADD62C,0.06800*%
%ADD63R,0.06800X0.06800*%
%ADD64C,0.02200*%
%ADD65C,0.04537*%
G04:AMPARAMS|DCode=77|XSize=21.75mil|YSize=124.11mil|CornerRadius=6.94mil|HoleSize=0mil|Usage=FLASHONLY|Rotation=0.000|XOffset=0mil|YOffset=0mil|HoleType=Round|Shape=RoundedRectangle|*
%AMROUNDEDRECTD77*
21,1,0.02175,0.11024,0,0,0.0*
21,1,0.00787,0.12411,0,0,0.0*
1,1,0.01387,0.00394,-0.05512*
1,1,0.01387,-0.00394,-0.05512*
1,1,0.01387,-0.00394,0.05512*
1,1,0.01387,0.00394,0.05512*
%
%ADD77ROUNDEDRECTD77*%
D38*
X118250Y-34250D02*
D03*
D59*
X6122Y-103142D02*
D03*
X28878D02*
D03*
D60*
X34528Y-116921D02*
D03*
X472D02*
D03*
D61*
X34528Y-101173D02*
D03*
X472D02*
D03*
D62*
X110000Y12000D02*
D03*
X100000D02*
D03*
X-67500Y1500D02*
D03*
X-57500D02*
D03*
X-67500Y11500D02*
D03*
X-57500D02*
D03*
X100000Y1500D02*
D03*
X110000D02*
D03*
D63*
X90000Y12000D02*
D03*
X-77500Y1500D02*
D03*
Y11500D02*
D03*
X90000Y1500D02*
D03*
D64*
X56500Y-102000D02*
D03*
X59500Y-111000D02*
D03*
X-19939Y-38008D02*
D03*
X-19965Y-45500D02*
D03*
D65*
X-71839Y-27260D02*
D03*
Y-58677D02*
D03*
D77*
X32500Y-85500D02*
D03*
X24232D02*
D03*
X21476D02*
D03*
X13209D02*
D03*
X15965D02*
D03*
X4941D02*
D03*
X7697D02*
D03*
X26988D02*
D03*
X18721D02*
D03*
X10453D02*
D03*
X2185D02*
D03*
X29744D02*
D03*
M02*
