M48
;Layer_Color=9474304
;FILE_FORMAT=2:5
INCH,TZ
;TYPE=PLATED
T1F00S00C0.00800
T3F00S00C0.02559
T4F00S00C0.03500
T5F00S00C0.03937
%
T01
X-60000Y-112500
X-7500Y-96000
X-500Y-94500
X-3745Y-90000
X14500Y-102500
X18500
X30000Y-109000
X14000Y-65000
X-14000Y-57500
X-20000Y-52000
X-19965Y-45500
X-19939Y-38008
X-19931Y-29000
X-19965Y-21000
X-6500Y-13000
X49000Y-9000
X69000
X70000Y-20500
X62500Y-19000
X63500Y-29500
X53000Y-31500
X52000Y-35500
X51000Y-43000
X50000Y-45000
X48000Y-41000
X56500Y-39953
X59000Y-37500
X57500Y-50000
X59000Y-53000
X51500
Y-55000
Y-50000
X75992Y-42492
X79492Y-40492
Y-36492
X82992
Y-38992
X83992Y-41992
X86492Y-43492
Y-39492
Y-36492
X75992
X81492Y-43492
X97500Y-45500
X99500Y-44500
X101000Y-41500
X103500Y-47500
X97500Y-49327
X95491Y-55000
X95561Y-57561
X92000Y-56500
X90000Y-55500
X102000Y-57000
X103000Y-31500
X100000Y-29000
X84500Y-15500
X80000Y-18500
X80984Y-97492
X83484Y-97484
X83492Y-99992
X80992
X86492
X86484Y-97476
X86500Y-109500
X94984Y-107492
X94992Y-104992
X94984Y-102992
X97992Y-104992
X104992Y-106492
X108492
X111992
X116992Y-82992
X119492Y-82984
X122492Y-82992
X125492Y-82984
X105492Y-83992
X56500Y-102000
X59500Y-111000
T03
X6122Y-103142
X28878
T04
X-77500Y1500
X-67500
X-57500
Y11500
X-67500
X-77500
X90000Y12000
X100000
X110000
Y1500
X100000
X90000
T05
X-71839Y-58677
Y-27260
M30
